<svg width="71" height="69" viewBox="0 0 71 69" fill="none" xmlns="http://www.w3.org/2000/svg">
<g clip-path="url(#clip0_416_1412)">
<path d="M35.5 69C54.5538 69 70 53.5538 70 34.5C70 15.4462 54.5538 0 35.5 0C16.4462 0 1 15.4462 1 34.5C1 53.5538 16.4462 69 35.5 69Z" fill="#4A0AA8"/>
</g>
<g clip-path="url(#clip1_416_1412)">
<path fill-rule="evenodd" clip-rule="evenodd" d="M35.5036 0C15.9053 0 0 15.4573 0 34.5035C0 53.5497 15.9053 69.0046 35.5036 69.0046C55.1018 69.0046 71.0048 53.5474 71.0048 34.5035C71.0048 15.4596 55.0995 0 35.5036 0ZM32.661 62.1042C16.9793 62.1042 4.26147 49.7446 4.26147 34.5046C4.26147 19.2647 16.9793 6.90509 32.6622 6.90509C48.288 6.90509 61.0617 19.1872 61.0617 34.5046C61.0617 49.822 48.288 62.1042 32.6622 62.1042H32.661Z" fill="black"/>
</g>
<path d="M18.44 19H41.8L39 25.08H26.84V30.68H39V35.32H26.84V40.92H41.8L39 47H18.44V19Z" fill="white"/>
<path d="M46.4297 18.5625C48.2891 18.6328 50.1992 18.6328 52.1602 18.5625C52.2383 18.5625 52.3008 18.6172 52.3477 18.7266C52.3633 18.8906 52.3711 19.0508 52.3711 19.207C52.3711 19.3711 52.3633 19.5352 52.3477 19.6992C52.3086 19.8008 52.2461 19.8516 52.1602 19.8516C51.793 19.8516 51.4258 19.8477 51.0586 19.8398L49.9688 19.8164C49.9062 20.3164 49.875 20.8203 49.875 21.3281C49.875 21.7969 49.9023 22.2695 49.957 22.7461C50.5039 22.7461 51.2383 22.7305 52.1602 22.6992C52.2383 22.6992 52.3008 22.7539 52.3477 22.8633C52.3633 23.0273 52.3711 23.1914 52.3711 23.3555C52.3711 23.5195 52.3633 23.6797 52.3477 23.8359C52.3008 23.9375 52.2383 23.9883 52.1602 23.9883C50.2305 23.9414 48.3203 23.9414 46.4297 23.9883C46.0703 23.9961 45.8867 23.9336 45.8789 23.8008C45.7852 22.9648 45.7344 22.1484 45.7266 21.3516C45.7266 20.5391 45.7773 19.7227 45.8789 18.9023C45.8633 18.8945 45.8555 18.8828 45.8555 18.8672C45.8555 18.8203 45.918 18.7578 46.043 18.6797C46.207 18.5781 46.3359 18.5391 46.4297 18.5625ZM48.3867 35.9414C48.2383 35.9336 48.168 35.8867 48.1758 35.8008C48.2148 35.1211 48.2383 34.5469 48.2461 34.0781C48.2539 33.4922 48.25 32.9023 48.2344 32.3086L47.0742 32.4492C47.0742 33.9414 47.0898 35.0273 47.1211 35.707C47.1289 35.8477 47.082 35.918 46.9805 35.918C46.8086 35.9492 46.6367 35.9648 46.4648 35.9648C46.3008 35.9648 46.1367 35.9492 45.9727 35.918C45.8789 35.918 45.832 35.8477 45.832 35.707C45.8711 33.5273 45.8711 31.3555 45.832 29.1914C45.832 29.0898 45.8828 29.0195 45.9844 28.9805C46.1484 28.957 46.3125 28.9453 46.4766 28.9453C46.6406 28.9453 46.8047 28.957 46.9688 28.9805C47.0703 29.0195 47.1211 29.0898 47.1211 29.1914C47.0977 30.5039 47.0859 31.168 47.0859 31.1836C48.7109 31.0664 50.3945 30.9023 52.1367 30.6914C52.2305 30.6836 52.2969 30.7266 52.3359 30.8203C52.4531 31.3828 52.5117 31.9844 52.5117 32.625C52.5117 32.8516 52.5078 33.082 52.5 33.3164C52.4375 34.2148 52.4062 35.043 52.4062 35.8008C52.4062 35.8867 52.3359 35.9336 52.1953 35.9414C50.9297 35.9883 49.6602 35.9883 48.3867 35.9414ZM51.6914 42.5625C51.7227 42.5391 51.7578 42.5273 51.7969 42.5273C51.875 42.5273 51.9609 42.5625 52.0547 42.6328C52.2031 42.75 52.2656 42.8398 52.2422 42.9023C52.3359 43.7227 52.3789 44.5391 52.3711 45.3516C52.3633 46.2266 52.3203 47.043 52.2422 47.8008C52.2344 47.918 52.0742 47.9766 51.7617 47.9766L45.9609 47.9883C45.8906 47.9883 45.8125 47.9688 45.7266 47.9297C45.6406 47.8906 45.6016 47.8398 45.6094 47.7773C45.6328 46.9414 45.6445 46.1055 45.6445 45.2695C45.6367 44.4336 45.625 43.5977 45.6094 42.7617C45.6016 42.6992 45.6406 42.6523 45.7266 42.6211C45.8125 42.582 45.8906 42.5625 45.9609 42.5625C47.8906 42.6406 49.8008 42.6406 51.6914 42.5625ZM46.8633 43.8398C46.8555 44.3164 46.8516 44.7969 46.8516 45.2812C46.8516 45.7578 46.8555 46.2383 46.8633 46.7227C47.2852 46.7383 47.7148 46.7461 48.1523 46.7461C48.1992 46.3008 48.2227 45.8438 48.2227 45.375C48.2227 44.8672 48.1953 44.3477 48.1406 43.8164C47.7188 43.832 47.293 43.8398 46.8633 43.8398Z" fill="white"/>
<defs>
<clipPath id="clip0_416_1412">
<rect width="69" height="69" fill="white" transform="translate(1)"/>
</clipPath>
<clipPath id="clip1_416_1412">
<rect width="71" height="69" fill="white"/>
</clipPath>
</defs>
</svg>
